# xmcd CD database file
#
# Track frame offsets:
#        150
#        18357
#        34441
#        45442
#        58358
#        68950
#        80202
#        97639
#        111892
#        125802
#        143326
#        156285
#        174029
#
# Disc length: 2480 seconds
#
# Revision: 0
# Processed by: cddbd v1.5.2PL0 Copyright (c) Steve Scherf et al.
# Submitted via: CUERipper 2.1.4
#
DISCID=ab09ae0d
DTITLE=Jaromir Nohavica - Poruba
DYEAR=2017
DGENRE=folk
TTITLE0=Poruba
TTITLE1=Kdo z nás
TTITLE2=Lžou mi do očí
TTITLE3=Velká tma
TTITLE4=Himaláje
TTITLE5=Sako ze sametu
TTITLE6=Černá jáma
TTITLE7=Natašo, lásko má
TTITLE8=Nájezdníci
TTITLE9=Tři rohy penalta
TTITLE10=Raz dva tři
TTITLE11=Empire state
TTITLE12=Napořád
EXTD=
EXTT0=
EXTT1=
EXTT2=
EXTT3=
EXTT4=
EXTT5=
EXTT6=
EXTT7=
EXTT8=
EXTT9=
EXTT10=
EXTT11=
EXTT12=
PLAYORDER=
